# xmcd
#
# Track frame offsets: 
#        150
#        25632
#        38828
#
# Disc length: 675 seconds
#
# Revision: 0
# Processed by: cddbd v1.5.2PL0 Copyright (c) Steve Scherf et al.
# Submitted via: ExactAudioCopy v0.99pb3
#
DISCID=1702a103
DTITLE=In Wrath - Deft EP
DYEAR=2008
DGENRE=Folk
TTITLE0=Changed
TTITLE1=Another Day
TTITLE2=Fail to Flight
EXTD=
EXTT0=
EXTT1=
EXTT2=
PLAYORDER=
